<svg width="27" height="24" viewBox="0 0 27 24" fill="none" xmlns="http://www.w3.org/2000/svg">
<path fill-rule="evenodd" clip-rule="evenodd" d="M16.6911 0.601242C16.2769 0.601242 15.9411 0.937028 15.9411 1.35124C15.9411 1.76546 16.2769 2.10124 16.6911 2.10124C18.6701 2.10124 20.2744 3.70555 20.2744 5.68458C20.2744 7.6636 18.6701 9.26791 16.6911 9.26791C16.2769 9.26791 15.9411 9.60369 15.9411 10.0179C15.9411 10.4321 16.2769 10.7679 16.6911 10.7679C19.4985 10.7679 21.7744 8.49202 21.7744 5.68458C21.7744 2.87713 19.4985 0.601242 16.6911 0.601242ZM18.8577 13.6012C18.4435 13.6012 18.1077 13.937 18.1077 14.3512C18.1077 14.7655 18.4435 15.1012 18.8577 15.1012H20.1577C22.6154 15.1012 24.6077 17.0936 24.6077 19.5512C24.6077 21.0516 23.3915 22.2679 21.8911 22.2679H18.8577C18.4435 22.2679 18.1077 22.6037 18.1077 23.0179C18.1077 23.4321 18.4435 23.7679 18.8577 23.7679H21.8911C24.2199 23.7679 26.1077 21.88 26.1077 19.5512C26.1077 16.2651 23.4438 13.6012 20.1577 13.6012H18.8577ZM4.02441 5.68458C4.02441 2.87713 6.3003 0.601242 9.10775 0.601242C11.9152 0.601242 14.1911 2.87713 14.1911 5.68458C14.1911 8.49202 11.9152 10.7679 9.10775 10.7679C6.3003 10.7679 4.02441 8.49202 4.02441 5.68458ZM6.72441 13.6012C3.43832 13.6012 0.774414 16.2651 0.774414 19.5512C0.774414 21.88 2.66228 23.7679 4.99108 23.7679H13.2244C15.5532 23.7679 17.4411 21.88 17.4411 19.5512C17.4411 16.2651 14.7772 13.6012 11.4911 13.6012H6.72441Z" fill="#29BFF5"/>
</svg>
