<svg width="36" height="36" viewBox="0 0 36 36" fill="none" xmlns="http://www.w3.org/2000/svg">
<path fill-rule="evenodd" clip-rule="evenodd" d="M18.0144 0.909183L18.1969 0.909187L18.3795 0.909183C22.5488 0.909061 24.8254 0.908994 26.6976 1.4993C30.665 2.75019 33.7726 5.85785 35.0235 9.82519C35.6138 11.6974 35.6137 13.974 35.6136 18.1433V18.3259V18.5084C35.6137 22.6777 35.6138 24.9543 35.0235 26.8265C33.7726 30.7939 30.665 33.9015 26.6976 35.1524C24.8254 35.7427 22.5488 35.7426 18.3795 35.7425H18.1969H18.0144C13.8451 35.7426 11.5685 35.7427 9.69628 35.1524C5.72894 33.9015 2.62129 30.7939 1.37039 26.8265C0.780088 24.9543 0.780155 22.6777 0.780277 18.5084L0.780281 18.3259L0.780277 18.1433C0.780155 13.974 0.780088 11.6974 1.37039 9.82519C2.62129 5.85785 5.72894 2.75019 9.69628 1.4993C11.5685 0.908994 13.8451 0.909061 18.0144 0.909183ZM18.9469 11.6592C18.9469 11.245 18.6112 10.9092 18.1969 10.9092C17.7827 10.9092 17.4469 11.245 17.4469 11.6592V18.3259C17.4469 18.5766 17.5723 18.8108 17.7809 18.9499L22.7809 22.2832C23.1256 22.513 23.5912 22.4199 23.821 22.0752C24.0507 21.7306 23.9576 21.2649 23.613 21.0352L18.9469 17.9245V11.6592Z" fill="#EF4444"/>
</svg>
