<svg width="39" height="33" viewBox="0 0 39 33" fill="none" xmlns="http://www.w3.org/2000/svg">
<path fill-rule="evenodd" clip-rule="evenodd" d="M8.8307 0.576174L8.86426 0.576174L22.8643 0.576172L22.8978 0.576172C24.2695 0.576167 25.345 0.576163 26.2093 0.646783C27.0895 0.718693 27.8166 0.86755 28.4747 1.20288C29.5566 1.75416 30.4363 2.63379 30.9875 3.71572C31.3229 4.37386 31.4717 5.10097 31.5436 5.98111C31.5939 6.59661 31.6084 7.31917 31.6126 8.17952L28.6927 10.5155C28.6826 10.5236 28.6721 10.5319 28.6611 10.5406C28.6489 10.5503 28.6362 10.5604 28.623 10.5708L28.623 10.5709C28.3763 10.766 27.9696 11.0878 27.6614 11.513C27.3977 11.8767 27.2016 12.2849 27.0823 12.718C26.9428 13.2243 26.9456 13.7429 26.9473 14.0575C26.9474 14.0893 26.9476 14.1191 26.9476 14.1465V14.158V14.1694V14.1808V14.1922V14.2036V14.215V14.2264V14.2377V14.2491V14.2604V14.2717V14.283V14.2943V14.3056V14.3169V14.3282V14.3394V14.3507V14.3619V14.3732V14.3844V14.3956V14.4068V14.418V14.4291V14.4403V14.4514V14.4626V14.4737V14.4848V14.4959V14.507V14.5181V14.5292V14.5402V14.5513V14.5623V14.5734V14.5844V14.5954V14.6064V14.6174V14.6283V14.6393V14.6503V14.6612V14.6721V14.6831V14.694V14.7049V14.7157V14.7266V14.7375V14.7483V14.7592V14.77V14.7808V14.7916V14.8024V14.8132V14.824V14.8348V14.8455V14.8562V14.867V14.8777V14.8884V14.8991V14.9098V14.9205V14.9311V14.9418V14.9524V14.963V14.9737V14.9843V14.9949V15.0055V15.016V15.0266V15.0372V15.0477V15.0582V15.0687V15.0792V15.0897V15.1002V15.1107V15.1212V15.1316V15.1421V15.1525V15.1629V15.1733V15.1837V15.1941V15.2045V15.2148V15.2252V15.2355V15.2459V15.2562V15.2665V15.2768V15.2871V15.2973V15.3076V15.3178V15.3281V15.3383V15.3485V15.3587V15.3689V15.3791V15.3893V15.3994V15.4096V15.4197V15.4299V15.44V15.4501V15.4602V15.4702V15.4803V15.4904V15.5004V15.5105V15.5205V15.5305V15.5405V15.5505V15.5605V15.5704V15.5804V15.5903V15.6003V15.6102V15.6201V15.63V15.6399V15.6498V15.6596V15.6695V15.6793V15.6892V15.699V15.7088V15.7186V15.7284V15.7382V15.7479V15.7577V15.7674V15.7772V15.7869V15.7966V15.8063V15.816V15.8256V15.8353V15.845V15.8546V15.8642V15.8738V15.8834V15.893V15.9026V15.9122V15.9218V15.9313V15.9408V15.9504V15.9599V15.9694V15.9789V15.9883V15.9978V16.0073V16.0167V16.0262V16.0356V16.045V16.0544V16.0638V16.0731V16.0825V16.0919V16.1012V16.1105V16.1199V16.1292V16.1385V16.1477V16.157V16.1663V16.1755V16.1848V16.194V16.2032V16.2124V16.2216V16.2308V16.24V16.2491V16.2583V16.2674V16.2765V16.2856V16.2947V16.3038V16.3129V16.322V16.331V16.3401V16.3491V16.3581V16.3671V16.3761V16.3851V16.3941V16.403V16.412V16.4209V16.4298V16.4388V16.4477V16.4566V16.4654V16.4743V16.4832V16.492V16.5008V16.5097V16.5185V16.5273V16.5361V16.5448V16.5536V16.5624V16.5711V16.5798V16.5885V16.5972V16.6059V16.6146V16.6233V16.632V16.6406V16.6492V16.6579V16.6665V16.6751V16.6837V16.6922V16.7008V16.7094V16.7179V16.7264V16.735V16.7435V16.752V16.7604V16.7689V16.7774V16.7858V16.7943V16.8027V16.8111V16.8195V16.8279V16.8363V16.8446V16.853V16.8613V16.8697V16.878V16.8863V16.8946V16.9029V16.9111V16.9194V16.9277V16.9359V16.9441V16.9523V16.9605V16.9687V16.9769V16.9851V16.9932V17.0014V17.0095V17.0176V17.0257V17.0338V17.0419V17.05V17.058V17.0661V17.0741V17.0822V17.0902V17.0982V17.1062V17.1141V17.1221V17.1301V17.138V17.1459V17.1539V17.1618V17.1697V17.1775V17.1854V17.1933V17.2011V17.209V17.2168V17.2246V17.2324V17.2402V17.248V17.2557V17.2635V17.2712V17.2789V17.2867V17.2944V17.3021V17.3097V17.3174V17.3251V17.3327V17.3403V17.348V17.3556V17.3632V17.3708V17.3783V17.3859V17.3934V17.401V17.4085V17.416V17.4235V17.431V17.4385V17.446V17.4534V17.4608V17.4683V17.4757V17.4831V17.4905V17.4979V17.5053V17.5126V17.52V17.5273V17.5346V17.5419V17.5492V17.5565V17.5638V17.571V17.5783V17.5855V17.5928V17.6V17.6072V17.6144V17.6215V17.6287V17.6359V17.643V17.6501V17.6573V17.6644V17.6714V17.6785V17.6856V17.6927V17.6997V17.7067V17.7138V17.7208V17.7278V17.7347V17.7417V17.7487V17.7556V17.7626V17.7695V17.7764V17.7833V17.7902V17.7971V17.8039V17.8108V17.8176V17.8245V17.8313V17.8381V17.8449V17.8516V17.8584V17.8652V17.8719V17.8786V17.8854V17.8921V17.8988V17.9054V17.9121V17.9188V17.9254V17.932V17.9387V17.9453V17.9519V17.9584V17.965V17.9716V17.9781V17.9847V17.9912V17.9977V18.0042V18.0107V18.0172V18.0236V18.0301V18.0365V18.0429V18.0493V18.0557V18.0621V18.0685V18.0749V18.0812V18.0876V18.0939V18.1002V18.1065V18.1128V18.1191V18.1253V18.1316V18.1378V18.1441V18.1503V18.1565V18.1627V18.1689V18.175V18.1812V18.1873V18.1935V18.1996V18.2057V18.2118V18.2179V18.2239V18.23V18.236V18.2421V18.2481V18.2541V18.2601V18.2661V18.272V18.278V18.284V18.2899V18.2958V18.3017V18.3076V18.3135V18.3194V18.3252V18.3311V18.3369V18.3427V18.3485V18.3543V18.3601V18.3659V18.3717V18.3774V18.3831V18.3889V18.3946V18.4003V18.406V18.4116V18.4173V18.4229V18.4286V18.4342V18.4398V18.4454V18.451V18.4566V18.4621V18.4677V18.4732V18.4787V18.4843V18.4898V18.4952V18.5007V18.5062L26.9475 18.5531L26.9473 18.5953V18.5953C26.9456 18.9098 26.9428 19.4283 27.0823 19.9347C27.2016 20.3678 27.3977 20.7759 27.6614 21.1396C27.9697 21.5649 28.3763 21.8866 28.623 22.0818L28.6234 22.0821C28.6372 22.093 28.6504 22.1035 28.6632 22.1136C28.6734 22.1217 28.6833 22.1296 28.6928 22.1372L31.6126 24.4731C31.6084 25.3333 31.5939 26.0558 31.5436 26.6712C31.4717 27.5514 31.3229 28.2785 30.9875 28.9366C30.4363 30.0185 29.5566 30.8982 28.4747 31.4495C27.8166 31.7848 27.0895 31.9336 26.2093 32.0056C25.345 32.0762 24.2697 32.0762 22.898 32.0762H22.898H22.8979H22.8979H22.8978H22.8643L8.86426 32.0762H8.83068H8.83063H8.83058H8.83054H8.83049C7.45887 32.0762 6.3835 32.0762 5.5192 32.0056C4.63906 31.9337 3.91195 31.7848 3.25382 31.4495C2.17188 30.8982 1.29225 30.0186 0.740974 28.9366C0.40564 28.2785 0.256783 27.5514 0.184873 26.6712C0.114253 25.8069 0.114256 24.7315 0.11426 23.3597L0.114261 23.3262L0.114258 9.32617L0.114258 9.29262C0.114253 7.9209 0.114249 6.84546 0.184869 5.98111C0.256779 5.10097 0.405636 4.37386 0.74097 3.71573C1.29224 2.6338 2.17188 1.75416 3.25381 1.20289C3.91194 0.867554 4.63905 0.718697 5.51919 0.646787C6.38354 0.576166 7.45898 0.57617 8.8307 0.576174ZM37.7894 8.04348C37.3619 7.50795 36.7137 7.19641 36.0285 7.19715C35.5338 7.19769 35.0893 7.43115 34.688 7.69651C34.2817 7.96512 33.7917 8.35715 33.1927 8.83635L33.1631 8.86003L29.6298 11.6868L29.5731 11.732C29.2983 11.9514 29.0561 12.1447 28.8759 12.3934C28.7177 12.6116 28.6 12.8565 28.5284 13.1163C28.4468 13.4124 28.4472 13.7223 28.4475 14.074L28.4476 14.1465V18.5062L28.4475 18.5787C28.4472 18.9304 28.4468 19.2402 28.5284 19.5363C28.6 19.7962 28.7177 20.041 28.8759 20.2593C29.0561 20.5079 29.2983 20.7012 29.5731 20.9206L29.6298 20.9659L33.1631 23.7926L33.1927 23.8162C33.7917 24.2954 34.2817 24.6874 34.688 24.956C35.0893 25.2214 35.5338 25.4548 36.0285 25.4554C36.7137 25.4561 37.3619 25.1446 37.7894 24.609C38.098 24.2224 38.1934 23.7295 38.2369 23.2503C38.2809 22.7653 38.2809 22.1378 38.2809 21.3708V21.3707V21.3328V11.3197V11.2819C38.2809 10.5148 38.2809 9.88725 38.2369 9.40219C38.1934 8.92301 38.098 8.43012 37.7894 8.04348Z" fill="#65A30D"/>
</svg>
