<svg width="57" height="58" viewBox="0 0 57 58" fill="none" xmlns="http://www.w3.org/2000/svg">
<circle cx="28.6084" cy="29.3818" r="28.3916" fill="#2563EB"/>
<path d="M14.5092 26.7011V34.6661C13.3073 34.5297 12.3652 33.4967 12.3652 32.2558V29.1049C12.3652 27.8641 13.3073 26.8376 14.5092 26.7011ZM44.8489 29.1049V32.2558C44.8489 33.4967 43.9134 34.5232 42.705 34.6661V26.7011C43.9134 26.8376 44.8489 27.8641 44.8489 29.1049ZM28.6071 18.6582C26.8984 18.6582 25.5081 17.2679 25.5081 15.5592C25.5081 13.8506 26.8984 12.4668 28.6071 12.4668C30.3157 12.4668 31.706 13.8571 31.706 15.5657C31.706 17.2744 30.3157 18.6582 28.6071 18.6582ZM28.6071 13.7661C27.6131 13.7661 26.8075 14.5717 26.8075 15.5657C26.8075 16.5597 27.6131 17.3653 28.6071 17.3653C29.6011 17.3653 30.4067 16.5597 30.4067 15.5657C30.4067 14.5717 29.6011 13.7661 28.6071 13.7661Z" fill="white"/>
<path d="M28.6057 22.9521C28.2484 22.9521 27.9561 22.6597 27.9561 22.3024V18.0081C27.9561 17.6508 28.2484 17.3584 28.6057 17.3584C28.963 17.3584 29.2554 17.6508 29.2554 18.0081V22.3024C29.2554 22.6597 28.963 22.9521 28.6057 22.9521Z" fill="white"/>
<path d="M38.6956 23.0118C32.0949 21.1992 25.1174 21.1992 18.5168 23.0118C16.9251 23.4536 15.8076 24.9218 15.8076 26.598V36.7394C15.8076 38.7859 17.4773 40.4555 19.5237 40.4555H37.6886C39.7351 40.4555 41.4047 38.7859 41.4047 36.7394V26.598C41.4047 24.9218 40.2873 23.4536 38.6956 23.0118ZM21.031 29.3591C21.031 27.8259 22.2784 26.5785 23.8116 26.5785C25.3448 26.5785 26.5922 27.8259 26.5922 29.3591C26.5922 30.8923 25.3448 32.1397 23.8116 32.1397C22.2784 32.1397 21.031 30.8923 21.031 29.3591ZM32.5367 36.0507C31.2309 36.5705 29.9185 36.8303 28.6062 36.8303C27.2938 36.8303 25.9815 36.5705 24.6757 36.0507C24.3443 35.9143 24.1819 35.5375 24.3118 35.2062C24.4418 34.8748 24.8186 34.7124 25.1564 34.8423C27.4758 35.7714 29.7301 35.7714 32.0494 34.8423C32.3873 34.7059 32.7576 34.8683 32.894 35.2062C33.0305 35.5375 32.868 35.9143 32.5367 36.0507ZM33.4008 32.1397C31.8675 32.1397 30.6202 30.8923 30.6202 29.3591C30.6202 27.8259 31.8675 26.5785 33.4008 26.5785C34.934 26.5785 36.1814 27.8259 36.1814 29.3591C36.1814 30.8923 34.934 32.1397 33.4008 32.1397Z" fill="white"/>
</svg>
