<svg width="36" height="37" viewBox="0 0 36 37" fill="none" xmlns="http://www.w3.org/2000/svg">
<path fill-rule="evenodd" clip-rule="evenodd" d="M11.5303 0.243164C11.9445 0.243164 12.2803 0.57895 12.2803 0.993164V1.91056C12.6644 1.90983 13.0616 1.90983 13.4722 1.90983H13.4722L13.5303 1.90983H22.8636L22.9216 1.90983C23.3323 1.90983 23.7295 1.90983 24.1136 1.91056V0.993164C24.1136 0.578951 24.4494 0.243164 24.8636 0.243164C25.2778 0.243164 25.6136 0.57895 25.6136 0.993164V1.91946C27.1529 1.93742 28.4514 1.98887 29.5472 2.13619C31.2642 2.36704 32.5953 2.8456 33.6366 3.88686C34.6778 4.92812 35.1564 6.25921 35.3873 7.97626C35.6136 9.66002 35.6136 11.8225 35.6136 14.6017V14.6598V23.9932V24.0513C35.6136 26.8305 35.6136 28.993 35.3873 30.6767C35.1564 32.3938 34.6778 33.7249 33.6366 34.7661C32.5953 35.8074 31.2642 36.286 29.5472 36.5168C27.8634 36.7432 25.7009 36.7432 22.9217 36.7432H22.8636H13.5303H13.4722C10.6929 36.7432 8.53047 36.7432 6.84671 36.5168C5.12966 36.286 3.79856 35.8074 2.7573 34.7661C1.71605 33.7249 1.23748 32.3938 1.00663 30.6767C0.780254 28.993 0.780263 26.8305 0.780274 24.0512L0.780274 23.9932V14.6598L0.780274 14.6018C0.780263 11.8225 0.780254 9.66004 1.00663 7.97627C1.23748 6.25921 1.71605 4.92812 2.7573 3.88686C3.79856 2.8456 5.12966 2.36704 6.84671 2.13619C7.94247 1.98887 9.24097 1.93742 10.7803 1.91946V0.993164C10.7803 0.578951 11.1161 0.243164 11.5303 0.243164ZM19.3333 13.7962C19.6262 13.5033 20.101 13.5033 20.3939 13.7962L25.3939 18.7962C25.6868 19.0891 25.6868 19.5639 25.3939 19.8568L20.3939 24.8568C20.101 25.1497 19.6262 25.1497 19.3333 24.8568C19.0404 24.5639 19.0404 24.0891 19.3333 23.7962L23.0529 20.0765H11.5303C11.1161 20.0765 10.7803 19.7407 10.7803 19.3265C10.7803 18.9123 11.1161 18.5765 11.5303 18.5765H23.0529L19.3333 14.8568C19.0404 14.5639 19.0404 14.0891 19.3333 13.7962Z" fill="#22C55E"/>
</svg>
