<svg width="172" height="150" viewBox="0 0 172 150" fill="none" xmlns="http://www.w3.org/2000/svg">
<path d="M135.732 121.684C139.379 122.139 147.038 126.06 148.497 138.096" stroke="#F2A00D" stroke-width="5.45921" stroke-linecap="round"/>
<path d="M43.1825 92.912C37.7797 98.8131 26.1087 108.566 20.6196 93.751C17.9826 83.4126 39.8717 85.0441 26.2303 104.393C20.9878 111.829 10.3647 111.842 3.20508 107.973" stroke="#0BA8E0" stroke-width="5.45921" stroke-linecap="round"/>
<circle cx="96.9131" cy="75.8379" r="48.3409" fill="#60DD18"/>
<path d="M75.3203 74.4896L89.7121 88.8825L118.498 60.0967" stroke="white" stroke-width="9.50306"/>
<path d="M142.408 32.1255C146.939 33.2213 155.761 32.0196 159.376 19.5991C162.217 9.84081 165.601 8.31633 168.794 8.31641" stroke="#2652F1" stroke-width="5.45921" stroke-linecap="round"/>
<circle cx="82.6578" cy="6.57475" r="5.66166" fill="#B369F3"/>
<circle cx="156.384" cy="70.9251" r="4.86257" fill="#0BA8E0"/>
<circle cx="112.761" cy="144.301" r="4.86257" fill="#0BA8E0"/>
<circle cx="49.4466" cy="128.472" r="4.86257" fill="#60DD18"/>
<circle cx="98.1818" cy="138.097" r="2.64858" fill="#60DD18"/>
<circle cx="96.9122" cy="14.8849" r="2.64858" fill="#F2A00D"/>
<circle cx="38.5296" cy="54.6985" r="4.65066" fill="#F2A00D"/>
</svg>
