<svg width="36" height="36" viewBox="0 0 36 36" fill="none" xmlns="http://www.w3.org/2000/svg">
<path fill-rule="evenodd" clip-rule="evenodd" d="M13.5303 0.90918L13.4722 0.90918C10.693 0.909169 8.53048 0.90916 6.84671 1.13554C5.12966 1.36639 3.79856 1.84495 2.7573 2.88621C1.71605 3.92747 1.23748 5.25856 1.00663 6.97562C0.780254 8.65939 0.780263 10.8219 0.780274 13.6011L0.780274 13.6592V22.9925L0.780274 23.0506C0.780263 25.8298 0.780254 27.9923 1.00663 29.6761C1.23748 31.3931 1.71605 32.7242 2.7573 33.7655C3.79856 34.8067 5.12966 35.2853 6.84671 35.5162C8.53049 35.7425 10.693 35.7425 13.4723 35.7425H13.5303H23.4829L23.6371 35.7425C23.8011 35.7425 23.9598 35.7426 24.1136 35.7424V28.9925L24.1136 28.9405V28.9405V28.9404V28.9404V28.9404C24.1136 28.042 24.1136 27.2928 24.1935 26.698C24.2779 26.0702 24.4636 25.5034 24.9191 25.048C25.3745 24.5925 25.9413 24.4068 26.5691 24.3224C27.1639 24.2425 27.9131 24.2425 28.8116 24.2425H28.8636H35.6135C35.6137 24.0891 35.6136 23.9309 35.6136 23.7674V23.766L35.6136 23.6118V13.6592V13.6012C35.6136 10.8219 35.6136 8.6594 35.3872 6.97561C35.1564 5.25856 34.6778 3.92747 33.6366 2.88621C32.5953 1.84495 31.2642 1.36639 29.5472 1.13554C27.8634 0.90916 25.7009 0.909169 22.9216 0.90918L22.8636 0.90918H13.5303ZM28.04 35.3283C27.3298 35.5892 26.5816 35.6859 25.6136 35.7216V28.9925C25.6136 28.0285 25.6152 27.3809 25.6801 26.8979C25.7422 26.4364 25.8494 26.2389 25.9797 26.1086C26.11 25.9783 26.3075 25.8711 26.769 25.809C27.252 25.7441 27.8996 25.7425 28.8636 25.7425H35.5927C35.557 26.7105 35.4603 27.4587 35.1993 28.1689C35.1364 28.3401 35.0666 28.5087 34.99 28.6743C34.4853 29.7654 33.6193 30.6312 32.1696 32.0805L32.0606 32.1895L31.9516 32.2985C30.5023 33.7482 29.6365 34.6142 28.5454 35.1189C28.3798 35.1955 28.2112 35.2653 28.04 35.3283ZM11.5303 10.9092C11.1161 10.9092 10.7803 11.245 10.7803 11.6592C10.7803 12.0734 11.1161 12.4092 11.5303 12.4092H24.8636C25.2778 12.4092 25.6136 12.0734 25.6136 11.6592C25.6136 11.245 25.2778 10.9092 24.8636 10.9092H11.5303ZM10.7803 18.3258C10.7803 17.9116 11.1161 17.5758 11.5303 17.5758H21.5303C21.9445 17.5758 22.2803 17.9116 22.2803 18.3258C22.2803 18.7401 21.9445 19.0758 21.5303 19.0758H11.5303C11.1161 19.0758 10.7803 18.7401 10.7803 18.3258ZM11.5303 24.2425C11.1161 24.2425 10.7803 24.5783 10.7803 24.9925C10.7803 25.4067 11.1161 25.7425 11.5303 25.7425H14.8636C15.2778 25.7425 15.6136 25.4067 15.6136 24.9925C15.6136 24.5783 15.2778 24.2425 14.8636 24.2425H11.5303Z" fill="#F59E0B"/>
</svg>
